<svg width="68" height="20" fill="none" xmlns="http://www.w3.org/2000/svg"><path d="M3.4 11.92V1H.2v14h8.2v-3.08h-5zM16.872 5v.94c-.66-.76-1.64-1.22-2.98-1.22-2.62 0-4.78 2.3-4.78 5.28 0 2.98 2.16 5.28 4.78 5.28 1.34 0 2.32-.46 2.98-1.22V15h3V5h-3zm-2.38 7.44c-1.38 0-2.38-.94-2.38-2.44s1-2.44 2.38-2.44 2.38.94 2.38 2.44-1 2.44-2.38 2.44zm13.441-7.72c-1.32 0-2.32.48-2.86 1.22V5h-3v10h3V9.54c0-1.42.76-2.06 1.86-2.06.96 0 1.74.58 1.74 1.82V15h3V8.86c0-2.7-1.72-4.14-3.74-4.14zM40.993 1v4.94c-.66-.76-1.64-1.22-2.98-1.22-2.62 0-4.78 2.3-4.78 5.28 0 2.98 2.16 5.28 4.78 5.28 1.34 0 2.32-.46 2.98-1.22V15h3V1h-3zm-2.38 11.44c-1.38 0-2.38-.94-2.38-2.44s1-2.44 2.38-2.44 2.38.94 2.38 2.44-1 2.44-2.38 2.44zm9.081-8.32c.98 0 1.8-.82 1.8-1.8 0-.98-.82-1.8-1.8-1.8-.98 0-1.8.82-1.8 1.8 0 .98.82 1.8 1.8 1.8zM46.194 15h3V5h-3v10zM56.89 3.6V.72C53.57.52 52.03 2.2 52.03 5h-1.34v2.88h1.34V15h3V7.88h1.86V5h-1.86c0-1.16.74-1.5 1.86-1.4zM64.681 5l-1.88 6.12L60.581 5h-3.3l3.98 9.54c-.44 1.22-1.1 1.66-2.5 1.66V19c2.8.14 4.58-1.12 5.7-4.3l3.42-9.7h-3.2z" fill="#0B0D17"/></svg>