<svg width="30" height="30" fill="none" xmlns="http://www.w3.org/2000/svg"><path d="M5.667.333h-4A1.333 1.333 0 00.333 1.667v26.666a1.333 1.333 0 001.334 1.334h4V.333z" fill="#D6B1FF"/><path d="M8.333 29.667h13.334V.333H8.333v29.334zM15 24.333a1.333 1.333 0 110-2.666 1.333 1.333 0 010 2.666zm0-18.666a1.333 1.333 0 110 2.666 1.333 1.333 0 010-2.666zm0 8a1.333 1.333 0 110 2.667 1.333 1.333 0 010-2.667z" fill="#8C30F5"/><path d="M28.333.333h-4v29.334h4a1.333 1.333 0 001.334-1.334V1.667A1.333 1.333 0 0028.333.333z" fill="#2EC5CE"/></svg>